<svg width="44" height="96" viewBox="0 0 44 96" fill="none" xmlns="http://www.w3.org/2000/svg">
<path fill-rule="evenodd" clip-rule="evenodd" d="M19.4316 1.52235C20.5301 -0.508864 23.4455 -0.507011 24.542 1.52528L43.8613 37.3319C43.9028 37.4089 43.9248 37.4955 43.9248 37.5829V62.787L43.8975 64.8905C43.8268 68.7367 43.5774 76.7259 42.7109 79.0956C41.5598 82.2435 37.5197 86.4458 37.4902 86.4764C37.4902 86.4764 36.8684 81.8716 36.1064 80.8895C34.5017 78.8223 32.5818 78.8348 31.5156 78.8348C28.8267 78.8348 25.1057 81.9613 24.2705 83.91C21.8706 89.5105 24.2543 95.5596 24.2705 95.6005C24.214 95.5811 18.0302 93.4586 15.5781 89.0966C13.0831 84.6575 12.7987 78.4145 12.4189 77.2626C12.1999 76.5993 11.6894 75.9626 11.0586 75.5048C10.1024 74.8109 8.76583 74.497 7.6084 74.7665C4.41784 75.5099 2.7002 81.4657 2.7002 81.4657C2.69766 81.4608 0.68407 77.5972 0.381836 75.453C0.0803873 73.313 0.000407879 62.8407 0 62.787H0.00195312V37.5829C0.00202258 37.4954 0.0238225 37.4089 0.0654297 37.3319L19.4316 1.52235ZM23.5566 62.7938C23.556 62.8194 23.4968 65.2459 24.7959 66.9813C27.8192 71.0189 32.22 72.174 34.2256 73.2206C35.4815 73.8761 36.7709 75.1263 37.6943 76.5038C38.3976 77.5531 38.8234 79.3081 38.8301 79.3358C38.8456 79.2956 40.3501 75.3918 40.6221 70.2352C40.8939 65.0806 40.8443 62.8188 40.8438 62.7938H23.5566ZM23.5576 62.787H40.8438V38.7323L23.5576 28.5194V62.787ZM32.7803 55.1376C34.3477 55.1376 35.6182 56.6448 35.6182 58.5038C35.618 60.3626 34.3476 61.87 32.7803 61.87C31.213 61.87 29.9425 60.3626 29.9424 58.5038C29.9424 56.6448 31.2129 55.1376 32.7803 55.1376ZM37.3428 39.9579C38.1493 39.9579 38.8035 40.6114 38.8037 41.4179V51.6571C38.8036 52.4637 38.1493 53.118 37.3428 53.1181C36.5362 53.1181 35.8819 52.4637 35.8818 51.6571V41.4179C35.882 40.6113 36.5362 39.9579 37.3428 39.9579ZM32.7158 37.1854C33.5188 37.1854 34.1699 37.8366 34.1699 38.6395V49.1122C34.1698 49.9151 33.5188 50.5663 32.7158 50.5663C31.913 50.5661 31.2618 49.915 31.2617 49.1122V38.6395C31.2618 37.8367 31.913 37.1856 32.7158 37.1854ZM28.2021 34.8759C29.0173 34.8761 29.6777 35.5372 29.6777 36.3524V46.8681C29.6776 47.6832 29.0173 48.3444 28.2021 48.3446C27.3868 48.3446 26.7257 47.6834 26.7256 46.8681V36.3524C26.7256 35.537 27.3868 34.8759 28.2021 34.8759ZM23.54 25.1073C23.5425 25.1076 23.7663 25.137 23.9033 25.1806C24.0517 25.2278 24.2666 25.3456 24.2666 25.3456L38.6611 33.8329L23.54 6.22352V25.1073Z" fill="url(#paint0_linear_7391_32972)"/>
<defs>
<linearGradient id="paint0_linear_7391_32972" x1="21.9624" y1="0" x2="21.9624" y2="95.6005" gradientUnits="userSpaceOnUse">
<stop stop-color="#FCF4A1"/>
<stop offset="0.37" stop-color="#FDB041"/>
<stop offset="0.785" stop-color="#FE8F13"/>
</linearGradient>
</defs>
</svg>
