<svg width="41" height="40" viewBox="0 0 41 40" fill="none" xmlns="http://www.w3.org/2000/svg">
<path d="M1.54106 40C1.63595 40 1.73041 39.987 1.82177 39.9613L11.3911 37.2809C11.5632 37.2326 11.6908 37.0707 11.8171 36.9443L40.1951 8.66583C40.3903 8.47061 40.5 8.20585 40.5 7.92978C40.5 7.65372 40.4077 7.43048 40.2125 7.23526L33.3064 0.304865C33.1112 0.109662 32.8464 0 32.5704 0C32.2943 0 32.0295 0.109662 31.8343 0.304865L3.47095 28.5688C3.34457 28.6952 3.26747 28.9367 3.21925 29.1088L0.538612 38.6782C0.495255 38.8329 0.488304 38.9955 0.518304 39.1534C0.548304 39.3113 0.614441 39.46 0.711535 39.5881C0.808628 39.7161 0.934042 39.8199 1.07796 39.8914C1.22187 39.9628 1.38037 40 1.54106 40ZM11.0168 34.8054L5.61806 29.3877L27.7792 7.30426L33.1779 12.722L11.0168 34.8054ZM32.5704 2.51334L37.9774 7.93937L34.6531 11.252L29.2517 5.83165L32.5704 2.51334ZM4.72951 31.4353L8.94746 35.6681L3.04264 37.4573L4.72951 31.4353Z" fill="#222222"/>
</svg>
