<svg width="174" height="153" viewBox="0 0 174 153" fill="none" xmlns="http://www.w3.org/2000/svg">
<path fill-rule="evenodd" clip-rule="evenodd" d="M87.5955 139C122.113 139 150.095 111.018 150.095 76.5C150.095 41.9822 122.113 14 87.5955 14C53.0777 14 25.0955 41.9822 25.0955 76.5C25.0955 111.018 53.0777 139 87.5955 139Z" fill="url(#paint0_radial_7391_32745)"/>
<path fill-rule="evenodd" clip-rule="evenodd" d="M92.0012 28.8515C92.0012 23.1884 95.3954 18.0901 100.669 16.0248C114.977 10.4206 143.023 0 153.733 0C168.381 0 172.217 15.3181 172.217 15.3181C172.217 15.3181 174.31 74.1534 172.217 81.8124C171.603 84.0617 169.755 86.9416 167.451 89.8876C159.312 100.296 147.33 106.742 134.896 111.21L118.856 116.974L118.053 138.42L92.0012 152.793V28.8515ZM54.0177 36.5274L81.4594 21.7883V119.4C81.4594 125.089 78.0306 130.208 72.7314 132.277C60.1545 137.187 37.7411 145.572 31.348 145.572C22.308 145.572 19.1412 145.224 13.2121 141.743C3.95447 136.307 -0.242762 125.427 0.0108219 114.694L1.35411 57.8416L26.4652 45.4991V117.721C26.4652 117.721 29.2129 121.52 35.8783 119.836C42.5438 118.151 54.0177 110.759 54.0177 110.759V36.5274ZM118.856 36.2063V90.5159C118.856 90.5159 131.412 88.427 141.875 79.3755C152.338 70.3239 147.804 33.7694 146.06 29.9399C144.316 26.1103 118.856 36.2063 118.856 36.2063Z" fill="#222222"/>
<defs>
<radialGradient id="paint0_radial_7391_32745" cx="0" cy="0" r="1" gradientUnits="userSpaceOnUse" gradientTransform="translate(87.5955 76.5) rotate(90) scale(62.5)">
<stop offset="0.394231" stop-color="#F8E71C"/>
<stop offset="1" stop-color="#FFBD73"/>
</radialGradient>
</defs>
</svg>
